<svg version="1.1" id="Layer_1" xmlns="http://www.w3.org/2000/svg" xmlns:xlink="http://www.w3.org/1999/xlink" x="0px" y="0px"
	 width="100%" viewBox="0 0 1224 606" enable-background="new 0 0 1224 606" xml:space="preserve">
<path fill="#000000" opacity="1.000000" stroke="none" 
	d="
M829.000000,607.000000 
	C552.666687,607.000000 276.833374,607.000000 1.000037,607.000000 
	C1.000025,405.000031 1.000025,203.000061 1.000012,1.000064 
	C408.999969,1.000043 816.999939,1.000043 1225.000000,1.000021 
	C1225.000000,202.999939 1225.000000,404.999878 1225.000000,606.999878 
	C1093.166626,607.000000 961.333313,607.000000 829.000000,607.000000 
M601.683105,230.183823 
	C596.579773,230.120209 591.473694,229.929916 586.373962,230.036911 
	C582.897644,230.109848 579.429993,230.598389 575.250366,230.966782 
	C573.514587,231.551605 571.778809,232.136429 570.927979,232.423096 
	C570.927979,234.965363 571.326172,237.222107 570.844116,239.271820 
	C569.875793,243.388763 568.483887,247.411362 567.161682,251.438370 
	C565.679016,255.954224 564.054565,260.423279 562.540405,264.929047 
	C561.492004,268.048920 561.928955,272.353668 556.609924,271.929504 
	C556.227112,271.899017 555.750854,273.040039 555.336914,273.610321 
	C550.304749,259.406860 545.303223,245.289780 540.338623,231.277115 
	C533.251709,231.277115 526.124390,231.277115 518.276855,231.000381 
	C513.797791,232.213226 513.132507,236.306030 512.054382,239.791931 
	C510.371582,245.232666 509.610443,250.977753 507.703857,256.324707 
	C505.689331,261.974457 502.790649,267.308960 500.254395,272.832916 
	C495.608063,274.292664 495.179901,270.424622 494.073486,267.570618 
	C493.388489,265.803741 493.180298,263.856293 492.549835,262.063141 
	C490.766327,256.990753 488.722107,252.005630 487.071716,246.892181 
	C485.527039,242.106262 484.452240,237.168716 482.909058,232.382217 
	C482.689301,231.700485 480.993500,231.494644 479.732117,230.211594 
	C470.157928,230.443924 460.440521,228.020248 451.580811,231.038284 
	C452.035461,234.336487 452.400085,236.981659 452.793640,239.836792 
	C457.433838,240.230164 455.115753,243.173157 454.524475,245.552643 
	C458.415436,252.043610 461.168518,258.915436 461.372253,266.820251 
	C462.487396,266.984802 463.700256,267.163788 464.374481,267.263275 
	C465.374908,271.500885 466.247467,275.197052 467.328094,279.774384 
	C470.248505,281.208618 472.269012,287.841064 470.077240,292.637848 
	C471.410980,292.928375 472.718628,293.213226 474.455109,293.591492 
	C473.426666,295.543274 472.651764,297.013855 471.876862,298.484436 
	C472.359619,298.452637 472.842346,298.420837 473.325073,298.389038 
	C474.348236,300.592255 475.450470,302.764862 476.325348,305.025421 
	C476.492676,305.457764 475.764221,306.236786 475.449005,306.855865 
	C480.512299,307.408813 476.723877,310.617706 477.151001,312.561707 
	C477.615997,312.385986 478.080963,312.210266 478.545929,312.034546 
	C479.663696,314.646088 480.781464,317.257599 482.116150,320.375885 
	C491.705719,321.332916 501.772980,321.708618 510.102875,320.339020 
	C513.206726,311.712677 516.058228,304.467346 518.401001,297.061127 
	C520.271362,291.148407 521.522156,285.039734 523.752625,279.016693 
	C530.228455,277.899872 535.760071,285.116272 534.294495,292.999695 
	C535.231323,292.808502 536.030029,292.645477 536.622620,292.524536 
	C536.622620,294.781799 535.702209,297.824005 536.781921,298.952332 
	C541.462158,303.843170 542.427002,310.071564 543.908813,316.106689 
	C544.671265,319.212036 546.108215,320.991608 549.337097,321.008606 
	C555.633484,321.041779 561.930603,321.045441 568.226135,320.962677 
	C568.798889,320.955170 569.362366,320.234222 570.722107,319.874878 
	C574.846619,319.825134 575.382996,316.703644 576.094727,313.673004 
	C576.451172,312.154755 577.030334,310.690063 577.426819,309.179596 
	C579.007751,303.156097 580.556335,297.124084 582.804688,290.819519 
	C584.877625,286.201874 587.272339,281.697693 588.949341,276.940460 
	C591.585876,269.461273 593.753540,261.816132 596.088867,254.231735 
	C596.892578,251.621429 597.364197,248.882660 598.409302,246.378662 
	C600.308777,241.827423 602.569824,237.427292 604.484863,232.881882 
	C604.590942,232.630066 602.920837,231.629929 601.683105,230.183823 
M888.916016,250.062286 
	C889.281555,249.807678 889.809875,249.635986 889.988098,249.285995 
	C892.349487,244.648682 894.852295,240.065018 896.834106,235.267334 
	C897.258118,234.240814 895.748230,232.415451 894.706665,230.174042 
	C887.216553,230.105591 879.703064,230.370483 872.244873,229.847260 
	C867.558411,229.518494 865.278809,231.574493 863.992249,235.498962 
	C862.757629,239.264908 861.940186,243.181305 860.517395,246.868713 
	C858.181030,252.923569 855.486206,258.839508 852.978210,264.828979 
	C851.928650,267.335510 851.492432,270.336060 849.808044,272.265869 
	C848.422729,273.852966 845.605164,274.189941 843.656311,274.985504 
	C838.133728,259.922150 832.893738,245.629456 827.565613,231.096481 
	C827.292114,231.096481 826.128418,231.096481 824.745972,230.248505 
	C814.450012,229.444992 804.180176,229.181290 793.120850,231.510666 
	C794.728699,233.457993 796.318970,234.644424 796.877747,236.201096 
	C798.480713,240.666946 799.331543,245.422028 801.148010,249.784393 
	C802.147888,252.185501 804.495728,254.025299 805.498169,255.231003 
	C806.991211,259.676086 808.219238,263.332367 809.447327,266.988617 
	C809.729187,266.839569 810.011047,266.690491 810.292908,266.541412 
	C810.204346,267.934052 810.115784,269.326691 810.029663,270.681549 
	C811.579468,270.962341 812.763733,271.176880 814.074524,271.414337 
	C813.460510,272.556702 812.509888,273.528381 812.710938,274.080658 
	C813.994385,277.605438 816.767700,281.060913 816.703735,284.495453 
	C816.599915,290.067108 820.923462,293.022797 823.168518,296.655884 
	C825.950073,301.157074 827.269958,306.119598 829.740173,310.617004 
	C830.133789,311.333557 827.833801,313.805573 828.196533,314.217346 
	C830.270874,316.572144 832.637878,320.141205 835.156860,320.356415 
	C842.724426,321.002808 850.408020,320.291138 858.845093,320.038239 
	C859.577637,318.944214 860.533020,317.936371 860.996399,316.738220 
	C861.970154,314.220184 862.467529,311.506744 863.546692,309.042664 
	C867.292114,300.491119 870.625305,291.679993 875.256653,283.623718 
	C878.266785,278.387665 877.573853,270.166718 885.188721,269.005646 
	C884.911377,266.222748 884.093933,263.663361 884.553040,261.358185 
	C885.320862,257.502686 886.903748,253.809464 888.916016,250.062286 
M386.573059,257.059662 
	C386.573059,257.059662 386.839325,256.878052 387.694733,256.976410 
	C390.804352,257.603027 391.627014,255.697723 392.017578,253.173233 
	C392.843750,247.832626 393.739105,242.502747 394.641479,236.950851 
	C393.909027,236.587296 393.225006,236.177139 392.491730,235.894852 
	C386.052368,233.416046 379.516266,234.938080 373.019165,235.539291 
	C372.155731,235.619202 370.859436,236.316483 370.630157,237.013062 
	C369.759827,239.657333 366.339447,240.794952 367.305206,244.884354 
	C367.831848,247.114319 364.931580,252.266617 362.999908,252.583435 
	C356.128113,253.710541 349.006439,253.508560 341.984009,253.424759 
	C339.275452,253.392456 336.579254,252.329651 333.307709,251.611252 
	C335.723480,243.389572 337.908234,235.954117 340.198120,228.160858 
	C331.021332,226.689011 322.209045,225.275635 312.975128,223.794632 
	C314.222748,223.130295 314.999664,222.716614 315.776550,222.302917 
	C314.200958,219.613403 315.367035,218.077316 317.278625,215.785233 
	C319.571686,213.035751 316.043274,208.120270 312.141083,208.010864 
	C308.978210,207.922165 305.112122,209.100235 302.845886,207.672363 
	C300.662964,206.296951 299.510345,206.178513 297.514832,207.062714 
	C292.918945,209.099106 288.639526,211.195160 289.881165,217.574585 
	C290.082642,218.609802 288.780182,219.861679 288.466766,221.088486 
	C287.742462,223.924179 287.198425,226.805923 286.496368,230.062927 
	C290.944336,230.062927 294.241302,230.062927 297.538269,230.062927 
	C297.557648,230.226242 297.576996,230.389557 297.596375,230.552872 
	C296.216614,230.847015 294.836823,231.141159 293.457062,231.435318 
	C295.357361,232.007141 297.178558,231.957321 298.996155,232.016922 
	C303.569550,232.166901 305.557922,235.036911 303.950531,239.153564 
	C301.748596,244.792816 299.518585,250.421097 296.785675,257.361786 
	C301.678406,257.996704 305.413483,258.707886 309.173920,258.887482 
	C311.567871,259.001831 313.999390,258.057465 316.414124,258.057159 
	C323.977325,258.056244 324.898285,259.510620 322.208893,266.510254 
	C321.981354,267.102509 322.129639,267.828247 321.982208,268.463867 
	C320.323273,275.615234 318.704468,282.777496 316.876770,289.885925 
	C316.667969,290.697998 315.334259,291.568970 314.383545,291.775787 
	C311.701935,292.359100 308.952454,292.900146 306.222076,292.940369 
	C296.894714,293.077728 287.562347,293.094086 278.235657,292.936127 
	C275.125458,292.883484 272.026520,292.167725 269.289581,291.803925 
	C269.839142,289.183685 271.194214,286.731598 270.478363,285.361877 
	C268.559937,281.691223 269.840057,279.811768 272.648438,278.380280 
	C272.389374,276.394257 272.144623,274.517761 271.840088,272.183167 
	C272.927765,273.092926 273.538361,273.603638 274.690155,274.567017 
	C274.690155,272.006256 274.690155,270.145050 274.690155,268.289825 
	C269.719849,266.961243 265.191162,265.129791 259.564728,266.703949 
	C254.620621,268.087158 248.980118,266.878601 243.653549,267.033447 
	C240.077667,267.137421 237.528015,268.089539 236.822006,272.653900 
	C235.830261,279.065674 233.816666,285.343567 231.916824,291.580231 
	C231.009888,294.557495 232.039749,296.846466 235.063278,297.008972 
	C241.142456,297.335724 247.233215,297.535126 253.294586,298.067261 
	C256.235474,298.325470 258.681519,299.398621 257.044403,303.340973 
	C256.131714,305.538818 255.538483,307.892639 255.015686,310.224213 
	C253.927109,315.079071 253.091064,319.992126 251.939026,324.830688 
	C251.132355,328.218658 249.963898,331.519867 248.975479,334.865295 
	C247.407959,340.170807 246.005081,346.417542 240.049545,347.713013 
	C230.783737,349.728546 221.182251,349.947601 211.712921,348.217438 
	C207.484589,347.444885 204.906906,349.584442 203.853210,354.074432 
	C202.147156,361.344238 200.018036,368.515289 198.043762,375.721527 
	C196.537613,381.218994 194.994690,386.706421 193.281372,392.870178 
	C197.433456,393.661896 200.872620,394.946808 204.267166,394.838165 
	C212.107056,394.587189 220.000763,392.686523 227.730865,393.285278 
	C235.278503,393.869934 241.105759,392.562714 245.761261,386.297119 
	C244.511063,386.053345 243.418045,385.840240 241.036591,385.375916 
	C247.150070,383.514343 246.192917,379.873962 245.719528,376.186279 
	C245.447586,374.067932 245.502701,371.729584 246.125595,369.710907 
	C247.470184,365.353333 249.275970,361.138092 251.078278,356.375122 
	C257.324310,352.510803 265.156097,352.818298 272.943878,353.026306 
	C282.694214,353.286743 292.443085,353.928772 302.188477,353.856384 
	C305.229248,353.833771 310.473450,354.253204 308.087524,347.878937 
	C307.681366,346.793762 308.178284,345.282043 308.498444,344.028778 
	C309.954315,338.330200 311.445526,332.639252 313.044373,326.979584 
	C313.422760,325.640137 314.266571,324.432190 315.408081,322.132965 
	C315.335236,321.342072 313.263275,318.486542 317.332275,318.192047 
	C317.884491,314.445831 318.527039,310.651917 318.986664,306.835938 
	C319.664154,301.211456 323.215912,298.026031 329.102234,298.012451 
	C338.098389,297.991699 347.095490,298.080994 356.090485,297.977783 
	C361.088409,297.920441 364.057709,294.427826 364.126373,290.399384 
	C364.210876,285.440857 365.002563,280.449585 365.955322,275.563477 
	C366.871918,270.862732 368.383820,266.278015 369.933167,260.533691 
	C375.601562,259.887390 382.065857,259.150330 388.388855,258.429413 
	C387.769958,258.009613 387.014709,257.497345 386.573059,257.059662 
M897.956787,268.022064 
	C897.889526,272.840668 899.488770,278.656799 897.347473,282.233978 
	C894.449280,287.075775 896.766357,287.867188 899.798096,289.531952 
	C897.652466,296.772339 901.702759,305.382202 906.838440,304.662292 
	C906.787231,305.488190 906.349854,306.693573 906.744080,307.108276 
	C909.951111,310.481476 912.851746,314.470886 916.727722,316.813538 
	C924.168945,321.311066 932.863892,321.778534 941.352478,321.933472 
	C947.404724,322.043976 953.754883,320.064056 959.466492,321.318573 
	C968.305908,323.260193 972.959351,316.695770 979.430542,313.862915 
	C979.662109,313.761566 979.758179,313.374237 979.944153,313.141541 
	C981.987549,310.585541 984.036255,308.033722 986.545532,304.904602 
	C987.969421,301.836731 989.832092,297.823486 991.921753,293.321198 
	C991.105957,292.705261 990.061768,291.274872 988.833008,291.093140 
	C980.798035,289.904846 972.728210,288.940216 964.654480,288.040405 
	C963.658386,287.929382 962.181946,288.307587 961.586914,289.014038 
	C956.079285,295.552551 948.366821,295.727631 940.929016,295.788574 
	C937.612305,295.815796 934.278503,293.764221 932.298340,293.104523 
	C930.401184,288.967255 928.994934,285.900452 927.537964,282.723083 
	C929.143982,281.978485 930.157532,281.106903 931.179626,281.096802 
	C941.343201,280.996246 951.510315,280.914032 961.672302,281.078827 
	C969.760315,281.209991 977.848450,282.041229 985.925842,281.908722 
	C992.505127,281.800812 993.702881,279.963074 993.025391,273.853149 
	C992.647278,270.442505 992.656555,266.957184 991.940369,263.623901 
	C991.083496,259.635651 989.726440,255.744019 988.417847,251.867310 
	C987.521118,249.211121 986.127136,246.712418 985.353943,244.028503 
	C984.812683,242.149750 983.318604,240.574585 982.389954,239.481262 
	C979.915466,236.568054 976.437622,234.139008 972.888916,232.602310 
	C968.730164,230.801437 964.137695,229.636322 959.624695,229.084427 
	C942.513428,226.991852 925.585938,226.512283 911.453979,238.963013 
	C909.043213,241.087006 906.908997,243.620239 905.040833,246.244720 
	C901.304382,251.493683 900.611389,258.330231 896.352417,263.410126 
	C895.909302,263.938660 897.172058,265.897369 897.956787,268.022064 
M709.527893,249.948090 
	C708.480286,252.236710 707.432739,254.525345 706.208069,257.200806 
	C716.051758,258.771057 725.785095,260.323730 735.518433,261.876373 
	C735.412476,261.367035 735.306519,260.857727 735.200623,260.348389 
	C737.079834,258.121429 739.893311,256.151215 740.594177,253.600464 
	C741.411560,250.626129 743.562439,250.990646 745.163513,250.519547 
	C747.316406,249.886108 749.917358,249.550339 751.985779,250.188873 
	C754.183655,250.867386 757.027954,252.489258 757.640320,254.343170 
	C758.166809,255.937195 756.476746,259.176270 754.818359,260.365967 
	C752.303162,262.170349 748.935913,262.756531 745.984253,263.988831 
	C738.192932,267.241669 729.333679,266.414917 721.804565,271.651581 
	C717.719055,274.493134 714.610962,277.511810 711.963135,281.427521 
	C710.765747,283.198242 708.610474,284.764954 708.344238,286.631683 
	C707.741333,290.858917 707.995361,295.214783 707.983704,299.518585 
	C707.956787,309.488617 713.487122,316.865143 722.936890,320.080444 
	C733.509521,323.677765 743.946106,321.542725 754.462097,319.920654 
	C757.366272,319.472717 760.395081,319.672302 763.357666,319.794708 
	C771.736389,320.140900 780.109741,320.870392 788.486694,320.892853 
	C792.188904,320.902771 793.664246,318.322540 792.859619,314.396851 
	C791.983521,310.122955 791.182373,305.752502 791.106873,301.410919 
	C790.880859,288.427734 791.490662,275.414154 790.825012,262.461243 
	C790.502930,256.194183 789.422607,249.994385 786.395752,243.802567 
	C781.540771,233.871109 772.968445,230.996826 763.927063,229.180115 
	C752.838257,226.952042 741.621094,228.115402 730.522888,230.864639 
	C722.848999,232.765610 716.808167,236.259827 713.102722,243.367889 
	C712.071411,245.346191 710.998840,247.302994 709.527893,249.948090 
M638.112488,281.041840 
	C658.677856,281.041840 679.243286,281.041840 700.736206,281.041840 
	C699.776184,271.978424 698.904541,263.592072 697.955505,255.214478 
	C697.903259,254.753006 697.117859,254.418274 696.828003,253.932480 
	C695.531189,251.759308 694.100342,249.638290 693.065735,247.341721 
	C690.282349,241.162628 686.022522,236.706467 679.731689,233.871826 
	C668.171082,228.662628 656.358215,226.471664 643.747742,228.925964 
	C635.005066,230.627472 626.066101,231.634811 620.053589,239.405045 
	C619.388062,240.265137 618.837646,241.274658 618.013062,241.941895 
	C609.251770,249.030838 606.956299,259.029083 606.055298,269.414337 
	C605.116882,280.231537 606.366272,290.649750 611.811279,300.549561 
	C615.286926,306.868988 619.691711,311.914856 625.386353,316.061615 
	C630.908264,320.082581 637.408752,320.298065 643.856506,321.078705 
	C659.604065,322.985260 674.839844,323.002869 687.417664,311.222870 
	C692.163879,306.777679 695.945190,301.638550 698.059814,295.374969 
	C699.054749,292.428070 697.791443,291.289368 695.055725,290.965790 
	C691.832153,290.584534 688.626404,289.886505 685.396179,289.763184 
	C679.263184,289.529022 673.242615,286.045319 667.341370,292.788208 
	C662.366211,298.472900 655.822876,301.090240 646.589661,296.963043 
	C639.808960,293.932129 638.562866,289.275513 636.185120,284.246002 
	C635.865784,283.570618 636.867859,282.270508 638.112488,281.041840 
M385.007202,203.660538 
	C385.908722,200.161804 386.810242,196.663055 387.728271,193.100250 
	C388.622314,193.369827 389.607300,193.666824 391.163361,194.136017 
	C390.671600,191.901306 390.305328,190.236893 389.987244,188.791458 
	C391.888458,187.437119 393.489685,185.387695 395.317291,185.160629 
	C401.424744,184.401840 407.841675,185.166412 411.175781,181.921616 
	C412.697632,174.186859 413.859192,168.283142 415.293579,160.993011 
	C408.055817,160.993011 401.519775,161.007156 394.983795,160.987808 
	C390.962738,160.975906 388.688873,162.881851 387.962708,166.882294 
	C387.368225,170.157104 386.682983,173.444305 385.633331,176.591049 
	C385.293091,177.611053 383.725006,178.796310 382.628510,178.893814 
	C376.566559,179.432922 370.480377,179.797745 364.395599,179.955368 
	C357.866638,180.124496 355.906433,182.120880 354.892548,188.594849 
	C354.109741,193.593124 352.336121,198.429443 351.183441,203.379791 
	C350.695312,205.476166 349.748688,208.317932 350.680939,209.663818 
	C351.703552,211.140106 354.654846,211.899673 356.761536,211.891571 
	C363.505371,211.865631 370.251038,211.399246 376.988312,210.979584 
	C379.933075,210.796158 382.859222,210.313538 385.007019,210.059738 
	C385.007019,207.731277 385.007019,206.131058 385.007202,203.660538 
z"/>
<path fill="#F9FDFC" opacity="1.000000" stroke="none" 
	d="
M386.259491,256.985077 
	C387.014709,257.497345 387.769958,258.009613 388.388855,258.429413 
	C382.065857,259.150330 375.601562,259.887390 369.933167,260.533691 
	C368.383820,266.278015 366.871918,270.862732 365.955322,275.563477 
	C365.002563,280.449585 364.210876,285.440857 364.126373,290.399384 
	C364.057709,294.427826 361.088409,297.920441 356.090485,297.977783 
	C347.095490,298.080994 338.098389,297.991699 329.102234,298.012451 
	C323.215912,298.026031 319.664154,301.211456 318.986664,306.835938 
	C318.527039,310.651917 317.884491,314.445831 317.332275,318.192047 
	C313.263275,318.486542 315.335236,321.342072 315.408081,322.132965 
	C314.266571,324.432190 313.422760,325.640137 313.044373,326.979584 
	C311.445526,332.639252 309.954315,338.330200 308.498444,344.028778 
	C308.178284,345.282043 307.681366,346.793762 308.087524,347.878937 
	C310.473450,354.253204 305.229248,353.833771 302.188477,353.856384 
	C292.443085,353.928772 282.694214,353.286743 272.943878,353.026306 
	C265.156097,352.818298 257.324310,352.510803 251.078278,356.375122 
	C249.275970,361.138092 247.470184,365.353333 246.125595,369.710907 
	C245.502701,371.729584 245.447586,374.067932 245.719528,376.186279 
	C246.192917,379.873962 247.150070,383.514343 241.036591,385.375916 
	C243.418045,385.840240 244.511063,386.053345 245.761261,386.297119 
	C241.105759,392.562714 235.278503,393.869934 227.730865,393.285278 
	C220.000763,392.686523 212.107056,394.587189 204.267166,394.838165 
	C200.872620,394.946808 197.433456,393.661896 193.281372,392.870178 
	C194.994690,386.706421 196.537613,381.218994 198.043762,375.721527 
	C200.018036,368.515289 202.147156,361.344238 203.853210,354.074432 
	C204.906906,349.584442 207.484589,347.444885 211.712921,348.217438 
	C221.182251,349.947601 230.783737,349.728546 240.049545,347.713013 
	C246.005081,346.417542 247.407959,340.170807 248.975479,334.865295 
	C249.963898,331.519867 251.132355,328.218658 251.939026,324.830688 
	C253.091064,319.992126 253.927109,315.079071 255.015686,310.224213 
	C255.538483,307.892639 256.131714,305.538818 257.044403,303.340973 
	C258.681519,299.398621 256.235474,298.325470 253.294586,298.067261 
	C247.233215,297.535126 241.142456,297.335724 235.063278,297.008972 
	C232.039749,296.846466 231.009888,294.557495 231.916824,291.580231 
	C233.816666,285.343567 235.830261,279.065674 236.822006,272.653900 
	C237.528015,268.089539 240.077667,267.137421 243.653549,267.033447 
	C248.980118,266.878601 254.620621,268.087158 259.564728,266.703949 
	C265.191162,265.129791 269.719849,266.961243 274.690155,268.289825 
	C274.690155,270.145050 274.690155,272.006256 274.690155,274.567017 
	C273.538361,273.603638 272.927765,273.092926 271.840088,272.183167 
	C272.144623,274.517761 272.389374,276.394257 272.648438,278.380280 
	C269.840057,279.811768 268.559937,281.691223 270.478363,285.361877 
	C271.194214,286.731598 269.839142,289.183685 269.289581,291.803925 
	C272.026520,292.167725 275.125458,292.883484 278.235657,292.936127 
	C287.562347,293.094086 296.894714,293.077728 306.222076,292.940369 
	C308.952454,292.900146 311.701935,292.359100 314.383545,291.775787 
	C315.334259,291.568970 316.667969,290.697998 316.876770,289.885925 
	C318.704468,282.777496 320.323273,275.615234 321.982208,268.463867 
	C322.129639,267.828247 321.981354,267.102509 322.208893,266.510254 
	C324.898285,259.510620 323.977325,258.056244 316.414124,258.057159 
	C313.999390,258.057465 311.567871,259.001831 309.173920,258.887482 
	C305.413483,258.707886 301.678406,257.996704 296.785675,257.361786 
	C299.518585,250.421097 301.748596,244.792816 303.950531,239.153564 
	C305.557922,235.036911 303.569550,232.166901 298.996155,232.016922 
	C297.178558,231.957321 295.357361,232.007141 293.457062,231.435318 
	C294.836823,231.141159 296.216614,230.847015 297.596375,230.552872 
	C297.576996,230.389557 297.557648,230.226242 297.538269,230.062927 
	C294.241302,230.062927 290.944336,230.062927 286.496368,230.062927 
	C287.198425,226.805923 287.742462,223.924179 288.466766,221.088486 
	C288.780182,219.861679 290.082642,218.609802 289.881165,217.574585 
	C288.639526,211.195160 292.918945,209.099106 297.514832,207.062714 
	C299.510345,206.178513 300.662964,206.296951 302.845886,207.672363 
	C305.112122,209.100235 308.978210,207.922165 312.141083,208.010864 
	C316.043274,208.120270 319.571686,213.035751 317.278625,215.785233 
	C315.367035,218.077316 314.200958,219.613403 315.776550,222.302917 
	C314.999664,222.716614 314.222748,223.130295 312.975128,223.794632 
	C322.209045,225.275635 331.021332,226.689011 340.198120,228.160858 
	C337.908234,235.954117 335.723480,243.389572 333.307709,251.611252 
	C336.579254,252.329651 339.275452,253.392456 341.984009,253.424759 
	C349.006439,253.508560 356.128113,253.710541 362.999908,252.583435 
	C364.931580,252.266617 367.831848,247.114319 367.305206,244.884354 
	C366.339447,240.794952 369.759827,239.657333 370.630157,237.013062 
	C370.859436,236.316483 372.155731,235.619202 373.019165,235.539291 
	C379.516266,234.938080 386.052368,233.416046 392.491730,235.894852 
	C393.225006,236.177139 393.909027,236.587296 394.641479,236.950851 
	C393.739105,242.502747 392.843750,247.832626 392.017578,253.173233 
	C391.627014,255.697723 390.804352,257.603027 387.352722,256.554993 
	C388.714539,249.994080 390.418427,243.854599 392.216553,237.375412 
	C385.422424,237.375412 379.470642,237.375412 373.116211,237.375412 
	C371.527802,243.481873 369.960754,249.506210 368.303192,255.878494 
	C374.786285,256.278046 380.522888,256.631561 386.259491,256.985077 
M309.026489,228.248993 
	C310.573273,222.279449 312.120026,216.309906 313.773010,209.930389 
	C307.859283,209.930389 302.720520,209.765411 297.607056,210.051971 
	C296.401367,210.119522 294.600037,211.492126 294.238159,212.633789 
	C292.596954,217.811340 291.372925,223.121109 289.847412,228.962753 
	C296.549561,228.962753 302.792969,228.962753 308.808716,229.703979 
	C306.479126,238.331177 304.149506,246.958359 301.614624,256.345764 
	C310.817963,256.345764 319.377594,256.345764 328.857697,256.345764 
	C325.323975,269.864136 322.002197,282.571686 318.542267,295.807831 
	C331.168335,295.807831 342.966400,295.898560 354.758209,295.668152 
	C355.942871,295.644989 357.773407,293.873505 358.146088,292.579803 
	C361.226044,281.887390 364.054413,271.121948 366.886719,260.359589 
	C367.152893,259.348145 366.922211,258.205963 366.922211,256.632996 
	C354.219482,256.632996 341.819275,256.632996 328.888275,256.632996 
	C331.345734,247.176346 333.650452,238.307495 336.057861,229.043396 
	C326.570679,229.043396 317.763489,229.043396 309.026489,228.248993 
M262.249207,296.740936 
	C257.447327,314.946503 252.645432,333.152069 247.715424,351.843384 
	C262.687500,351.843384 276.821350,351.843170 290.955200,351.843414 
	C303.237183,351.843628 303.302399,351.861542 306.456787,340.216553 
	C310.401581,325.653351 314.225525,311.057404 318.218201,296.037079 
	C299.414124,296.037079 281.146393,296.037079 262.934448,295.214203 
	C265.159027,286.311066 267.383575,277.407898 269.635620,268.394775 
	C260.353394,268.394775 251.583130,268.394775 242.500076,268.394775 
	C240.097046,277.506958 237.728210,286.489532 235.236786,295.936890 
	C244.865219,295.936890 253.665649,295.936890 262.249207,296.740936 
M239.707092,381.125824 
	C242.225052,371.571564 244.743027,362.017334 247.407715,351.906281 
	C234.656174,351.906281 222.700485,351.858856 210.746994,351.998474 
	C209.813995,352.009369 208.310257,353.164795 208.059982,354.063477 
	C204.680878,366.196411 201.477142,378.378174 198.112137,390.989563 
	C208.416779,390.989563 218.216751,390.989960 228.016724,390.989441 
	C237.214142,390.988953 237.214142,390.988525 239.707092,381.125824 
z"/>
<path fill="#F4F5F6" opacity="1.000000" stroke="none" 
	d="
M897.800049,267.607300 
	C897.172058,265.897369 895.909302,263.938660 896.352417,263.410126 
	C900.611389,258.330231 901.304382,251.493683 905.040833,246.244720 
	C906.908997,243.620239 909.043213,241.087006 911.453979,238.963013 
	C925.585938,226.512283 942.513428,226.991852 959.624695,229.084427 
	C964.137695,229.636322 968.730164,230.801437 972.888916,232.602310 
	C976.437622,234.139008 979.915466,236.568054 982.389954,239.481262 
	C983.318604,240.574585 984.812683,242.149750 985.353943,244.028503 
	C986.127136,246.712418 987.521118,249.211121 988.417847,251.867310 
	C989.726440,255.744019 991.083496,259.635651 991.940369,263.623901 
	C992.656555,266.957184 992.647278,270.442505 993.025391,273.853149 
	C993.702881,279.963074 992.505127,281.800812 985.925842,281.908722 
	C977.848450,282.041229 969.760315,281.209991 961.672302,281.078827 
	C951.510315,280.914032 941.343201,280.996246 931.179626,281.096802 
	C930.157532,281.106903 929.143982,281.978485 927.537964,282.723083 
	C928.994934,285.900452 930.401184,288.967255 932.298340,293.104523 
	C934.278503,293.764221 937.612305,295.815796 940.929016,295.788574 
	C948.366821,295.727631 956.079285,295.552551 961.586914,289.014038 
	C962.181946,288.307587 963.658386,287.929382 964.654480,288.040405 
	C972.728210,288.940216 980.798035,289.904846 988.833008,291.093140 
	C990.061768,291.274872 991.105957,292.705261 991.921753,293.321198 
	C989.832092,297.823486 987.969421,301.836731 986.545532,304.904602 
	C984.036255,308.033722 981.987549,310.585541 979.944153,313.141541 
	C979.758179,313.374237 979.662109,313.761566 979.430542,313.862915 
	C972.959351,316.695770 968.305908,323.260193 959.466492,321.318573 
	C953.754883,320.064056 947.404724,322.043976 941.352478,321.933472 
	C932.863892,321.778534 924.168945,321.311066 916.727722,316.813538 
	C912.851746,314.470886 909.951111,310.481476 906.744080,307.108276 
	C906.349854,306.693573 906.787231,305.488190 906.838440,304.662292 
	C901.702759,305.382202 897.652466,296.772339 899.798096,289.531952 
	C896.766357,287.867188 894.449280,287.075775 897.347473,282.233978 
	C899.488770,278.656799 897.889526,272.840668 897.800049,267.607300 
M913.953308,309.572174 
	C931.958008,323.257294 951.211853,324.891724 971.196289,314.720276 
	C979.840149,310.320801 985.438843,302.866669 988.264282,293.231171 
	C981.606628,292.194580 975.553040,291.111053 969.455688,290.406250 
	C968.010864,290.239197 965.582703,290.897339 965.030457,291.934204 
	C961.383240,298.781982 955.227600,301.078796 948.186157,301.642731 
	C936.083435,302.612030 924.219788,292.872314 925.686340,279.797363 
	C946.885986,279.797363 968.130676,279.797363 989.811890,279.797363 
	C990.330261,265.488129 988.812683,252.168213 978.456055,241.631943 
	C967.151184,230.131012 952.829590,228.570450 937.808777,230.552948 
	C924.796814,232.270294 914.405640,238.439835 907.352417,249.803528 
	C897.853821,265.106781 897.731506,294.178467 913.953308,309.572174 
z"/>
<path fill="#F1F2F3" opacity="1.000000" stroke="none" 
	d="
M709.736511,249.608856 
	C710.998840,247.302994 712.071411,245.346191 713.102722,243.367889 
	C716.808167,236.259827 722.848999,232.765610 730.522888,230.864639 
	C741.621094,228.115402 752.838257,226.952042 763.927063,229.180115 
	C772.968445,230.996826 781.540771,233.871109 786.395752,243.802567 
	C789.422607,249.994385 790.502930,256.194183 790.825012,262.461243 
	C791.490662,275.414154 790.880859,288.427734 791.106873,301.410919 
	C791.182373,305.752502 791.983521,310.122955 792.859619,314.396851 
	C793.664246,318.322540 792.188904,320.902771 788.486694,320.892853 
	C780.109741,320.870392 771.736389,320.140900 763.357666,319.794708 
	C760.395081,319.672302 757.366272,319.472717 754.462097,319.920654 
	C743.946106,321.542725 733.509521,323.677765 722.936890,320.080444 
	C713.487122,316.865143 707.956787,309.488617 707.983704,299.518585 
	C707.995361,295.214783 707.741333,290.858917 708.344238,286.631683 
	C708.610474,284.764954 710.765747,283.198242 711.963135,281.427521 
	C714.610962,277.511810 717.719055,274.493134 721.804565,271.651581 
	C729.333679,266.414917 738.192932,267.241669 745.984253,263.988831 
	C748.935913,262.756531 752.303162,262.170349 754.818359,260.365967 
	C756.476746,259.176270 758.166809,255.937195 757.640320,254.343170 
	C757.027954,252.489258 754.183655,250.867386 751.985779,250.188873 
	C749.917358,249.550339 747.316406,249.886108 745.163513,250.519547 
	C743.562439,250.990646 741.411560,250.626129 740.594177,253.600464 
	C739.893311,256.151215 737.079834,258.121429 735.200623,260.348389 
	C735.306519,260.857727 735.412476,261.367035 735.518433,261.876373 
	C725.785095,260.323730 716.051758,258.771057 706.208069,257.200806 
	C707.432739,254.525345 708.480286,252.236710 709.736511,249.608856 
M713.219360,250.067474 
	C712.681091,251.938019 712.142822,253.808563 711.447815,256.223694 
	C718.799377,257.573639 725.726562,258.845642 732.591736,260.106232 
	C737.004517,247.887497 748.814575,243.076233 759.379333,248.938858 
	C762.991150,250.943130 764.991882,253.960693 764.736877,258.279602 
	C764.487488,262.502838 761.368347,263.594971 758.098938,264.531372 
	C756.026978,265.124786 753.910339,265.562317 751.839233,266.158356 
	C742.813599,268.755859 733.569092,270.793213 724.836243,274.156189 
	C714.273743,278.223785 709.066895,288.303436 710.524719,299.336365 
	C712.173218,311.812897 718.399780,318.397156 730.706360,320.335724 
	C743.761841,322.392273 755.539490,319.686584 765.461365,310.035065 
	C766.192078,313.210815 766.834595,316.003387 767.472168,318.774353 
	C775.184143,318.774353 782.572021,318.774353 789.300171,318.774353 
	C788.897095,306.685059 788.419189,294.921021 788.141418,283.152313 
	C787.944946,274.827606 788.188171,266.491333 787.934326,258.169434 
	C787.539978,245.240479 780.332642,235.707352 767.926453,232.174225 
	C756.362610,228.881012 744.690613,229.190735 733.100586,232.493790 
	C723.951294,235.101273 717.251160,240.460037 713.219360,250.067474 
z"/>
<path fill="#F1F2F3" opacity="1.000000" stroke="none" 
	d="
M637.685242,281.150757 
	C636.867859,282.270508 635.865784,283.570618 636.185120,284.246002 
	C638.562866,289.275513 639.808960,293.932129 646.589661,296.963043 
	C655.822876,301.090240 662.366211,298.472900 667.341370,292.788208 
	C673.242615,286.045319 679.263184,289.529022 685.396179,289.763184 
	C688.626404,289.886505 691.832153,290.584534 695.055725,290.965790 
	C697.791443,291.289368 699.054749,292.428070 698.059814,295.374969 
	C695.945190,301.638550 692.163879,306.777679 687.417664,311.222870 
	C674.839844,323.002869 659.604065,322.985260 643.856506,321.078705 
	C637.408752,320.298065 630.908264,320.082581 625.386353,316.061615 
	C619.691711,311.914856 615.286926,306.868988 611.811279,300.549561 
	C606.366272,290.649750 605.116882,280.231537 606.055298,269.414337 
	C606.956299,259.029083 609.251770,249.030838 618.013062,241.941895 
	C618.837646,241.274658 619.388062,240.265137 620.053589,239.405045 
	C626.066101,231.634811 635.005066,230.627472 643.747742,228.925964 
	C656.358215,226.471664 668.171082,228.662628 679.731689,233.871826 
	C686.022522,236.706467 690.282349,241.162628 693.065735,247.341721 
	C694.100342,249.638290 695.531189,251.759308 696.828003,253.932480 
	C697.117859,254.418274 697.903259,254.753006 697.955505,255.214478 
	C698.904541,263.592072 699.776184,271.978424 700.736206,281.041840 
	C679.243286,281.041840 658.677856,281.041840 637.685242,281.150757 
M638.851990,231.980103 
	C615.136719,239.184158 605.885132,260.152039 609.412354,284.982025 
	C612.581543,307.291626 630.290344,321.029510 654.289368,320.971893 
	C675.311768,320.921387 693.134277,308.960205 695.626587,293.100098 
	C689.381592,292.191528 683.153198,291.137604 676.882751,290.491333 
	C675.544922,290.353455 673.528015,291.312256 672.718384,292.419647 
	C666.840820,300.459137 657.485229,303.646484 647.673706,300.656097 
	C638.926880,297.990173 633.321533,290.202454 633.064880,279.855591 
	C654.482849,279.855591 675.894348,279.855591 697.752808,279.855591 
	C697.752808,276.866333 697.867310,274.388428 697.734253,271.923920 
	C696.817932,254.949722 691.308472,240.662613 674.348511,233.545990 
	C663.059998,228.809204 651.398682,228.870209 638.851990,231.980103 
z"/>
<path fill="#EDEFF1" opacity="1.000000" stroke="none" 
	d="
M523.047974,279.018036 
	C521.522156,285.039734 520.271362,291.148407 518.401001,297.061127 
	C516.058228,304.467346 513.206726,311.712677 510.102875,320.339020 
	C501.772980,321.708618 491.705719,321.332916 482.116150,320.375885 
	C480.781464,317.257599 479.663696,314.646088 478.545929,312.034546 
	C478.080963,312.210266 477.615997,312.385986 477.151001,312.561707 
	C476.723877,310.617706 480.512299,307.408813 475.449005,306.855865 
	C475.764221,306.236786 476.492676,305.457764 476.325348,305.025421 
	C475.450470,302.764862 474.348236,300.592255 473.325073,298.389038 
	C472.842346,298.420837 472.359619,298.452637 471.876862,298.484436 
	C472.651764,297.013855 473.426666,295.543274 474.455109,293.591492 
	C472.718628,293.213226 471.410980,292.928375 470.077240,292.637848 
	C472.269012,287.841064 470.248505,281.208618 467.328094,279.774384 
	C466.247467,275.197052 465.374908,271.500885 464.374481,267.263275 
	C463.700256,267.163788 462.487396,266.984802 461.372253,266.820251 
	C461.168518,258.915436 458.415436,252.043610 454.524475,245.552643 
	C455.115753,243.173157 457.433838,240.230164 452.793640,239.836792 
	C452.400085,236.981659 452.035461,234.336487 451.580811,231.038284 
	C460.440521,228.020248 470.157928,230.443924 479.881531,230.799896 
	C480.030975,231.388214 480.062714,231.710297 479.590393,231.684326 
	C471.350922,231.658340 463.583740,231.658340 455.581909,231.658340 
	C455.844421,233.211670 455.877716,234.227753 456.191803,235.147995 
	C465.417877,262.182068 474.622833,289.223724 484.059937,316.184143 
	C484.555603,317.600189 486.998077,319.079376 488.639557,319.210480 
	C493.606750,319.607208 498.645721,319.082367 503.617981,319.445862 
	C507.205841,319.708191 508.381622,318.174530 509.444061,315.052338 
	C513.554688,302.972748 517.997437,291.006134 522.499756,278.990540 
	C522.682922,278.983643 523.047974,279.018036 523.047974,279.018036 
z"/>
<path fill="#F9FDFC" opacity="1.000000" stroke="none" 
	d="
M385.007111,204.095673 
	C385.007019,206.131058 385.007019,207.731277 385.007019,210.059738 
	C382.859222,210.313538 379.933075,210.796158 376.988312,210.979584 
	C370.251038,211.399246 363.505371,211.865631 356.761536,211.891571 
	C354.654846,211.899673 351.703552,211.140106 350.680939,209.663818 
	C349.748688,208.317932 350.695312,205.476166 351.183441,203.379791 
	C352.336121,198.429443 354.109741,193.593124 354.892548,188.594849 
	C355.906433,182.120880 357.866638,180.124496 364.395599,179.955368 
	C370.480377,179.797745 376.566559,179.432922 382.628510,178.893814 
	C383.725006,178.796310 385.293091,177.611053 385.633331,176.591049 
	C386.682983,173.444305 387.368225,170.157104 387.962708,166.882294 
	C388.688873,162.881851 390.962738,160.975906 394.983795,160.987808 
	C401.519775,161.007156 408.055817,160.993011 415.293579,160.993011 
	C413.859192,168.283142 412.697632,174.186859 411.175781,181.921616 
	C407.841675,185.166412 401.424744,184.401840 395.317291,185.160629 
	C393.489685,185.387695 391.888458,187.437119 389.987244,188.791458 
	C390.305328,190.236893 390.671600,191.901306 391.163361,194.136017 
	C389.607300,193.666824 388.622314,193.369827 387.728271,193.100250 
	C386.810242,196.663055 385.908722,200.161804 385.007111,204.095673 
M359.490936,185.935410 
	C357.408234,193.764877 355.325531,201.594345 353.116699,209.898026 
	C360.623749,209.898026 367.734955,209.665939 374.821167,209.986588 
	C378.955444,210.173676 381.348541,209.171097 381.905670,204.723404 
	C382.252808,201.951843 383.278687,199.267258 383.972748,196.536728 
	C385.134186,191.967560 386.273865,187.392883 387.562714,182.263168 
	C378.739532,182.263168 370.785370,182.156631 362.841278,182.390976 
	C361.786713,182.422089 360.783325,184.186005 359.490936,185.935410 
M392.768677,182.204361 
	C396.433502,182.199921 400.123901,182.442169 403.750183,182.066025 
	C405.142517,181.921585 407.170197,180.622406 407.565796,179.410950 
	C409.259094,174.225662 410.451660,168.876831 411.952362,163.104660 
	C406.230255,163.104660 400.927063,162.941971 395.648224,163.228409 
	C394.450684,163.293396 392.662750,164.705231 392.301697,165.858688 
	C390.675507,171.054169 389.464966,176.379761 388.042175,181.900681 
	C389.565826,182.022278 390.707642,182.113419 392.768677,182.204361 
z"/>
<path fill="#FAFAFB" opacity="1.000000" stroke="none" 
	d="
M858.046387,320.109314 
	C850.408020,320.291138 842.724426,321.002808 835.156860,320.356415 
	C832.637878,320.141205 830.270874,316.572144 828.196533,314.217346 
	C827.833801,313.805573 830.133789,311.333557 829.740173,310.617004 
	C827.269958,306.119598 825.950073,301.157074 823.168518,296.655884 
	C820.923462,293.022797 816.599915,290.067108 816.703735,284.495453 
	C816.767700,281.060913 813.994385,277.605438 812.710938,274.080658 
	C812.509888,273.528381 813.460510,272.556702 814.074524,271.414337 
	C812.763733,271.176880 811.579468,270.962341 810.029663,270.681549 
	C810.115784,269.326691 810.204346,267.934052 810.292908,266.541412 
	C810.011047,266.690491 809.729187,266.839569 809.447327,266.988617 
	C808.219238,263.332367 806.991211,259.676086 805.498169,255.231003 
	C804.495728,254.025299 802.147888,252.185501 801.148010,249.784393 
	C799.331543,245.422028 798.480713,240.666946 796.877747,236.201096 
	C796.318970,234.644424 794.728699,233.457993 793.120850,231.510666 
	C804.180176,229.181290 814.450012,229.444992 824.843994,230.795456 
	C824.942078,231.342407 825.042419,231.568100 824.571411,231.577942 
	C816.140869,231.587769 808.181274,231.587769 799.564453,231.587769 
	C811.977051,261.178833 824.117920,290.122131 836.186340,318.892822 
	C843.674744,318.892822 850.820679,318.892822 857.977539,319.197510 
	C858.007812,319.704590 858.027100,319.906921 858.046387,320.109314 
z"/>
<path fill="#EDEFF1" opacity="1.000000" stroke="none" 
	d="
M825.042419,231.568100 
	C825.042419,231.568100 824.942078,231.342407 824.953430,231.219452 
	C826.128418,231.096481 827.292114,231.096481 827.565613,231.096481 
	C832.893738,245.629456 838.133728,259.922150 843.656311,274.985504 
	C845.605164,274.189941 848.422729,273.852966 849.808044,272.265869 
	C851.492432,270.336060 851.928650,267.335510 852.978210,264.828979 
	C855.486206,258.839508 858.181030,252.923569 860.517395,246.868713 
	C861.940186,243.181305 862.757629,239.264908 863.992249,235.498962 
	C865.278809,231.574493 867.558411,229.518494 872.244873,229.847260 
	C879.703064,230.370483 887.216553,230.105591 894.708496,230.574219 
	C894.427856,231.049118 894.201172,231.205063 893.566650,231.524872 
	C886.123962,231.619995 879.137512,231.466080 872.172302,231.781174 
	C870.727295,231.846542 868.607483,233.356857 868.079529,234.703400 
	C864.404358,244.076645 861.083069,253.588196 857.616821,263.043884 
	C854.262573,272.194061 850.870667,281.330475 847.070557,291.623505 
	C839.421204,270.768921 832.231812,251.168518 825.042419,231.568100 
z"/>
<path fill="#EDEFF1" opacity="1.000000" stroke="none" 
	d="
M518.997070,231.277115 
	C526.124390,231.277115 533.251709,231.277115 540.338623,231.277115 
	C545.303223,245.289780 550.304749,259.406860 555.336914,273.610321 
	C555.750854,273.040039 556.227112,271.899017 556.609924,271.929504 
	C561.928955,272.353668 561.492004,268.048920 562.540405,264.929047 
	C564.054565,260.423279 565.679016,255.954224 567.161682,251.438370 
	C568.483887,247.411362 569.875793,243.388763 570.844116,239.271820 
	C571.326172,237.222107 570.927979,234.965363 570.927979,232.423096 
	C571.778809,232.136429 573.514587,231.551605 575.688110,231.119263 
	C576.250671,231.514648 576.407654,231.734634 576.525452,232.287277 
	C570.505798,250.900787 564.557495,269.158722 558.229492,288.582184 
	C553.015930,274.286743 548.283325,261.152985 543.425903,248.065521 
	C541.385742,242.568588 540.523010,234.938690 536.500854,232.340073 
	C532.298828,229.625168 524.940857,231.795013 518.968384,231.691223 
	C518.974243,231.552948 518.997070,231.277115 518.997070,231.277115 
z"/>
<path fill="#F1F2F3" opacity="1.000000" stroke="none" 
	d="
M518.636963,231.138748 
	C518.997070,231.277115 518.974243,231.552948 518.791504,232.026428 
	C511.936523,250.894653 505.264313,269.289398 498.176422,288.830170 
	C491.890533,269.008209 485.976624,250.359253 480.062744,231.710297 
	C480.062714,231.710297 480.030975,231.388214 480.005920,231.228363 
	C480.993500,231.494644 482.689301,231.700485 482.909058,232.382217 
	C484.452240,237.168716 485.527039,242.106262 487.071716,246.892181 
	C488.722107,252.005630 490.766327,256.990753 492.549835,262.063141 
	C493.180298,263.856293 493.388489,265.803741 494.073486,267.570618 
	C495.179901,270.424622 495.608063,274.292664 500.254395,272.832916 
	C502.790649,267.308960 505.689331,261.974457 507.703857,256.324707 
	C509.610443,250.977753 510.371582,245.232666 512.054382,239.791931 
	C513.132507,236.306030 513.797791,232.213226 518.636963,231.138748 
z"/>
<path fill="#43D3A7" opacity="1.000000" stroke="none" 
	d="
M386.416260,257.022369 
	C380.522888,256.631561 374.786285,256.278046 368.303192,255.878494 
	C369.960754,249.506210 371.527802,243.481873 373.116211,237.375412 
	C379.470642,237.375412 385.422424,237.375412 392.216553,237.375412 
	C390.418427,243.854599 388.714539,249.994080 386.924988,256.505798 
	C386.839325,256.878052 386.573059,257.059662 386.416260,257.022369 
z"/>
<path fill="#F4F5F6" opacity="1.000000" stroke="none" 
	d="
M523.400269,279.017365 
	C523.047974,279.018036 522.682922,278.983643 522.533630,278.624237 
	C524.303711,272.948059 526.223083,267.631287 528.445801,261.474152 
	C534.906189,280.026947 541.077515,297.595062 547.106750,315.211853 
	C548.144897,318.245239 549.465820,319.718597 553.037048,319.489044 
	C558.662109,319.127380 564.333374,319.482666 569.911133,319.601318 
	C569.837158,319.668182 569.930115,319.844574 569.930115,319.844574 
	C569.362366,320.234222 568.798889,320.955170 568.226135,320.962677 
	C561.930603,321.045441 555.633484,321.041779 549.337097,321.008606 
	C546.108215,320.991608 544.671265,319.212036 543.908813,316.106689 
	C542.427002,310.071564 541.462158,303.843170 536.781921,298.952332 
	C535.702209,297.824005 536.622620,294.781799 536.622620,292.524536 
	C536.030029,292.645477 535.231323,292.808502 534.294495,292.999695 
	C535.760071,285.116272 530.228455,277.899872 523.400269,279.017365 
z"/>
<path fill="#E7E9EB" opacity="1.000000" stroke="none" 
	d="
M858.445740,320.073761 
	C858.027100,319.906921 858.007812,319.704590 858.028320,318.832275 
	C861.169800,310.718079 864.202881,303.244354 867.387451,295.835754 
	C873.959229,280.547302 880.611816,265.293518 887.458862,250.048859 
	C887.686523,250.072235 888.143616,250.047958 888.143616,250.047958 
	C886.903748,253.809464 885.320862,257.502686 884.553040,261.358185 
	C884.093933,263.663361 884.911377,266.222748 885.188721,269.005646 
	C877.573853,270.166718 878.266785,278.387665 875.256653,283.623718 
	C870.625305,291.679993 867.292114,300.491119 863.546692,309.042664 
	C862.467529,311.506744 861.970154,314.220184 860.996399,316.738220 
	C860.533020,317.936371 859.577637,318.944214 858.445740,320.073761 
z"/>
<path fill="#DDE0E3" opacity="1.000000" stroke="none" 
	d="
M602.077515,230.978088 
	C602.920837,231.629929 604.590942,232.630066 604.484863,232.881882 
	C602.569824,237.427292 600.308777,241.827423 598.409302,246.378662 
	C597.364197,248.882660 596.892578,251.621429 596.088867,254.231735 
	C593.753540,261.816132 591.585876,269.461273 588.949341,276.940460 
	C587.272339,281.697693 584.877625,286.201874 582.292725,290.834167 
	C581.780701,290.848785 581.416382,290.646179 581.499634,290.269409 
	C586.435059,275.881989 591.352295,261.893372 596.106628,247.849625 
	C597.936279,242.444977 599.395142,236.914825 601.155273,231.283112 
	C601.287537,231.124359 601.664917,230.955994 601.664917,230.955994 
	C601.664917,230.955994 602.077515,230.978088 602.077515,230.978088 
z"/>
<path fill="#D3D7DB" opacity="1.000000" stroke="none" 
	d="
M570.326111,319.859741 
	C569.930115,319.844574 569.837158,319.668182 570.238647,319.390686 
	C571.179932,318.120911 571.855530,317.178162 572.237915,316.128571 
	C575.328491,307.645782 578.364014,299.142914 581.416382,290.646179 
	C581.416382,290.646179 581.780701,290.848785 581.948853,290.972015 
	C580.556335,297.124084 579.007751,303.156097 577.426819,309.179596 
	C577.030334,310.690063 576.451172,312.154755 576.094727,313.673004 
	C575.382996,316.703644 574.846619,319.825134 570.326111,319.859741 
z"/>
<path fill="#D3D7DB" opacity="1.000000" stroke="none" 
	d="
M888.529785,250.055115 
	C888.143616,250.047958 887.686523,250.072235 887.475220,249.685455 
	C889.519470,243.346542 891.774963,237.394394 894.030457,231.442261 
	C894.201172,231.205063 894.427856,231.049118 894.919800,230.966248 
	C895.748230,232.415451 897.258118,234.240814 896.834106,235.267334 
	C894.852295,240.065018 892.349487,244.648682 889.988098,249.285995 
	C889.809875,249.635986 889.281555,249.807678 888.529785,250.055115 
z"/>
<path fill="#F9FDFC" opacity="1.000000" stroke="none" 
	d="
M601.880310,230.580963 
	C602.077515,230.978088 601.664917,230.955994 601.664917,230.955994 
	C601.664917,230.955994 601.287537,231.124359 600.689453,231.345551 
	C592.259888,231.688385 584.428345,231.810043 576.596802,231.931702 
	C576.407654,231.734634 576.250671,231.514648 576.042175,231.086426 
	C579.429993,230.598389 582.897644,230.109848 586.373962,230.036911 
	C591.473694,229.929916 596.579773,230.120209 601.880310,230.580963 
z"/>
<path fill="#3FD2A5" opacity="1.000000" stroke="none" 
	d="
M262.878693,296.037079 
	C281.146393,296.037079 299.414124,296.037079 318.218201,296.037079 
	C314.225525,311.057404 310.401581,325.653351 306.456787,340.216553 
	C303.302399,351.861542 303.237183,351.843628 290.955200,351.843414 
	C276.821350,351.843170 262.687500,351.843384 247.715424,351.843384 
	C252.645432,333.152069 257.447327,314.946503 262.458191,296.371582 
	C262.667206,296.002258 262.878693,296.037079 262.878693,296.037079 
z"/>
<path fill="#40D3A5" opacity="1.000000" stroke="none" 
	d="
M308.956299,229.043396 
	C317.763489,229.043396 326.570679,229.043396 336.057861,229.043396 
	C333.650452,238.307495 331.345734,247.176346 328.888275,256.632996 
	C341.819275,256.632996 354.219482,256.632996 366.922211,256.632996 
	C366.922211,258.205963 367.152893,259.348145 366.886719,260.359589 
	C364.054413,271.121948 361.226044,281.887390 358.146088,292.579803 
	C357.773407,293.873505 355.942871,295.644989 354.758209,295.668152 
	C342.966400,295.898560 331.168335,295.807831 318.542267,295.807831 
	C322.002197,282.571686 325.323975,269.864136 328.857697,256.345764 
	C319.377594,256.345764 310.817963,256.345764 301.614624,256.345764 
	C304.149506,246.958359 306.479126,238.331177 308.902618,229.353622 
	C308.996521,229.003265 308.956299,229.043396 308.956299,229.043396 
z"/>
<path fill="#3FD2A5" opacity="1.000000" stroke="none" 
	d="
M239.568024,381.510864 
	C237.214142,390.988525 237.214142,390.988953 228.016724,390.989441 
	C218.216751,390.989960 208.416779,390.989563 198.112137,390.989563 
	C201.477142,378.378174 204.680878,366.196411 208.059982,354.063477 
	C208.310257,353.164795 209.813995,352.009369 210.746994,351.998474 
	C222.700485,351.858856 234.656174,351.906281 247.407715,351.906281 
	C244.743027,362.017334 242.225052,371.571564 239.568024,381.510864 
z"/>
<path fill="#43D3A7" opacity="1.000000" stroke="none" 
	d="
M262.906555,295.625641 
	C262.878693,296.037079 262.667206,296.002258 262.566650,295.969574 
	C253.665649,295.936890 244.865219,295.936890 235.236786,295.936890 
	C237.728210,286.489532 240.097046,277.506958 242.500076,268.394775 
	C251.583130,268.394775 260.353394,268.394775 269.635620,268.394775 
	C267.383575,277.407898 265.159027,286.311066 262.906555,295.625641 
z"/>
<path fill="#40D3A5" opacity="1.000000" stroke="none" 
	d="
M309.016449,228.983002 
	C302.792969,228.962753 296.549561,228.962753 289.847412,228.962753 
	C291.372925,223.121109 292.596954,217.811340 294.238159,212.633789 
	C294.600037,211.492126 296.401367,210.119522 297.607056,210.051971 
	C302.720520,209.765411 307.859283,209.930389 313.773010,209.930389 
	C312.120026,216.309906 310.573273,222.279449 308.991394,228.646194 
	C308.956299,229.043396 308.996521,229.003265 309.016449,228.983002 
z"/>
<path fill="#132E43" opacity="1.000000" stroke="none" 
	d="
M913.693542,309.322998 
	C897.731506,294.178467 897.853821,265.106781 907.352417,249.803528 
	C914.405640,238.439835 924.796814,232.270294 937.808777,230.552948 
	C952.829590,228.570450 967.151184,230.131012 978.456055,241.631943 
	C988.812683,252.168213 990.330261,265.488129 989.811890,279.797363 
	C968.130676,279.797363 946.885986,279.797363 925.686340,279.797363 
	C924.219788,292.872314 936.083435,302.612030 948.186157,301.642731 
	C955.227600,301.078796 961.383240,298.781982 965.030457,291.934204 
	C965.582703,290.897339 968.010864,290.239197 969.455688,290.406250 
	C975.553040,291.111053 981.606628,292.194580 988.264282,293.231171 
	C985.438843,302.866669 979.840149,310.320801 971.196289,314.720276 
	C951.211853,324.891724 931.958008,323.257294 913.693542,309.322998 
M935.359863,249.796646 
	C929.446716,252.599594 927.163574,257.714630 925.830261,263.767517 
	C939.467651,263.767517 952.503784,263.767517 965.562012,263.767517 
	C963.976929,248.313126 948.455627,243.688858 935.359863,249.796646 
z"/>
<path fill="#142E43" opacity="1.000000" stroke="none" 
	d="
M713.436890,249.742111 
	C717.251160,240.460037 723.951294,235.101273 733.100586,232.493790 
	C744.690613,229.190735 756.362610,228.881012 767.926453,232.174225 
	C780.332642,235.707352 787.539978,245.240479 787.934326,258.169434 
	C788.188171,266.491333 787.944946,274.827606 788.141418,283.152313 
	C788.419189,294.921021 788.897095,306.685059 789.300171,318.774353 
	C782.572021,318.774353 775.184143,318.774353 767.472168,318.774353 
	C766.834595,316.003387 766.192078,313.210815 765.461365,310.035065 
	C755.539490,319.686584 743.761841,322.392273 730.706360,320.335724 
	C718.399780,318.397156 712.173218,311.812897 710.524719,299.336365 
	C709.066895,288.303436 714.273743,278.223785 724.836243,274.156189 
	C733.569092,270.793213 742.813599,268.755859 751.839233,266.158356 
	C753.910339,265.562317 756.026978,265.124786 758.098938,264.531372 
	C761.368347,263.594971 764.487488,262.502838 764.736877,258.279602 
	C764.991882,253.960693 762.991150,250.943130 759.379333,248.938858 
	C748.814575,243.076233 737.004517,247.887497 732.591736,260.106232 
	C725.726562,258.845642 718.799377,257.573639 711.447815,256.223694 
	C712.142822,253.808563 712.681091,251.938019 713.436890,249.742111 
M765.063538,287.532776 
	C765.430664,284.848755 765.797852,282.164734 766.199585,279.227753 
	C761.213440,280.592438 756.908508,281.711487 752.640015,282.955566 
	C748.368347,284.200653 744.086609,285.439453 739.894653,286.922089 
	C735.518372,288.469879 733.072632,291.528992 733.770264,296.406738 
	C734.459473,301.225647 737.690918,303.439819 742.187439,304.148621 
	C753.211670,305.886475 761.506348,300.127563 765.063538,287.532776 
z"/>
<path fill="#132E43" opacity="1.000000" stroke="none" 
	d="
M639.253906,231.882202 
	C651.398682,228.870209 663.059998,228.809204 674.348511,233.545990 
	C691.308472,240.662613 696.817932,254.949722 697.734253,271.923920 
	C697.867310,274.388428 697.752808,276.866333 697.752808,279.855591 
	C675.894348,279.855591 654.482849,279.855591 633.064880,279.855591 
	C633.321533,290.202454 638.926880,297.990173 647.673706,300.656097 
	C657.485229,303.646484 666.840820,300.459137 672.718384,292.419647 
	C673.528015,291.312256 675.544922,290.353455 676.882751,290.491333 
	C683.153198,291.137604 689.381592,292.191528 695.626587,293.100098 
	C693.134277,308.960205 675.311768,320.921387 654.289368,320.971893 
	C630.290344,321.029510 612.581543,307.291626 609.412354,284.982025 
	C605.885132,260.152039 615.136719,239.184158 639.253906,231.882202 
M665.391479,264.020935 
	C668.026306,264.020935 670.661194,264.020935 673.330994,264.020935 
	C672.355835,253.327362 665.258667,247.104202 654.514587,247.116257 
	C642.991028,247.129181 634.851868,253.714981 633.957886,264.020935 
	C644.126892,264.020935 654.273315,264.020935 665.391479,264.020935 
z"/>
<path fill="#132E43" opacity="1.000000" stroke="none" 
	d="
M576.525452,232.287277 
	C584.428345,231.810043 592.259888,231.688385 600.557190,231.504303 
	C599.395142,236.914825 597.936279,242.444977 596.106628,247.849625 
	C591.352295,261.893372 586.435059,275.881989 581.499634,290.269409 
	C578.364014,299.142914 575.328491,307.645782 572.237915,316.128571 
	C571.855530,317.178162 571.179932,318.120911 570.312622,319.323792 
	C564.333374,319.482666 558.662109,319.127380 553.037048,319.489044 
	C549.465820,319.718597 548.144897,318.245239 547.106750,315.211853 
	C541.077515,297.595062 534.906189,280.026947 528.445801,261.474152 
	C526.223083,267.631287 524.303711,272.948059 522.350464,278.631104 
	C517.997437,291.006134 513.554688,302.972748 509.444061,315.052338 
	C508.381622,318.174530 507.205841,319.708191 503.617981,319.445862 
	C498.645721,319.082367 493.606750,319.607208 488.639557,319.210480 
	C486.998077,319.079376 484.555603,317.600189 484.059937,316.184143 
	C474.622833,289.223724 465.417877,262.182068 456.191803,235.147995 
	C455.877716,234.227753 455.844421,233.211670 455.581909,231.658340 
	C463.583740,231.658340 471.350922,231.658340 479.590424,231.684326 
	C485.976624,250.359253 491.890533,269.008209 498.176422,288.830170 
	C505.264313,269.289398 511.936523,250.894653 518.785645,232.164703 
	C524.940857,231.795013 532.298828,229.625168 536.500854,232.340073 
	C540.523010,234.938690 541.385742,242.568588 543.425903,248.065521 
	C548.283325,261.152985 553.015930,274.286743 558.229492,288.582184 
	C564.557495,269.158722 570.505798,250.900787 576.525452,232.287277 
z"/>
<path fill="#43D3A7" opacity="1.000000" stroke="none" 
	d="
M359.623596,185.541412 
	C360.783325,184.186005 361.786713,182.422089 362.841278,182.390976 
	C370.785370,182.156631 378.739532,182.263168 387.562714,182.263168 
	C386.273865,187.392883 385.134186,191.967560 383.972748,196.536728 
	C383.278687,199.267258 382.252808,201.951843 381.905670,204.723404 
	C381.348541,209.171097 378.955444,210.173676 374.821167,209.986588 
	C367.734955,209.665939 360.623749,209.898026 353.116699,209.898026 
	C355.325531,201.594345 357.408234,193.764877 359.623596,185.541412 
z"/>
<path fill="#40D3A5" opacity="1.000000" stroke="none" 
	d="
M392.309082,182.204453 
	C390.707642,182.113419 389.565826,182.022278 388.042175,181.900681 
	C389.464966,176.379761 390.675507,171.054169 392.301697,165.858688 
	C392.662750,164.705231 394.450684,163.293396 395.648224,163.228409 
	C400.927063,162.941971 406.230255,163.104660 411.952362,163.104660 
	C410.451660,168.876831 409.259094,174.225662 407.565796,179.410950 
	C407.170197,180.622406 405.142517,181.921585 403.750183,182.066025 
	C400.123901,182.442169 396.433502,182.199921 392.309082,182.204453 
z"/>
<path fill="#132E43" opacity="1.000000" stroke="none" 
	d="
M893.566650,231.524872 
	C891.774963,237.394394 889.519470,243.346542 887.247559,249.662079 
	C880.611816,265.293518 873.959229,280.547302 867.387451,295.835754 
	C864.202881,303.244354 861.169800,310.718079 858.017334,318.527588 
	C850.820679,318.892822 843.674744,318.892822 836.186340,318.892822 
	C824.117920,290.122131 811.977051,261.178833 799.564453,231.587769 
	C808.181274,231.587769 816.140869,231.587769 824.571411,231.577942 
	C832.231812,251.168518 839.421204,270.768921 847.070557,291.623505 
	C850.870667,281.330475 854.262573,272.194061 857.616821,263.043884 
	C861.083069,253.588196 864.404358,244.076645 868.079529,234.703400 
	C868.607483,233.356857 870.727295,231.846542 872.172302,231.781174 
	C879.137512,231.466080 886.123962,231.619995 893.566650,231.524872 
z"/>
<path fill="#F4F5F6" opacity="1.000000" stroke="none" 
	d="
M935.686584,249.600464 
	C948.455627,243.688858 963.976929,248.313126 965.562012,263.767517 
	C952.503784,263.767517 939.467651,263.767517 925.830261,263.767517 
	C927.163574,257.714630 929.446716,252.599594 935.686584,249.600464 
M946.500427,261.980408 
	C949.821716,261.977600 953.155518,262.150177 956.460327,261.915619 
	C959.030945,261.733185 961.564087,259.808929 959.571045,257.594055 
	C957.016235,254.754959 953.186523,252.972763 949.727539,251.057800 
	C943.776611,247.763321 938.840515,252.122574 933.847534,253.987976 
	C929.870361,255.473877 930.767883,257.275604 934.063660,260.196869 
	C937.831482,263.536469 941.785217,261.093353 946.500427,261.980408 
z"/>
<path fill="#F1F2F3" opacity="1.000000" stroke="none" 
	d="
M765.038452,287.939880 
	C761.506348,300.127563 753.211670,305.886475 742.187439,304.148621 
	C737.690918,303.439819 734.459473,301.225647 733.770264,296.406738 
	C733.072632,291.528992 735.518372,288.469879 739.894653,286.922089 
	C744.086609,285.439453 748.368347,284.200653 752.640015,282.955566 
	C756.908508,281.711487 761.213440,280.592438 766.199585,279.227753 
	C765.797852,282.164734 765.430664,284.848755 765.038452,287.939880 
M756.615723,284.987671 
	C755.386963,284.676514 753.973389,283.813995 752.962402,284.152740 
	C749.220581,285.406311 745.696289,287.332672 741.931152,288.487244 
	C737.242615,289.924896 734.767212,292.705231 736.325623,297.470306 
	C737.632690,301.466492 744.976074,303.587036 749.177795,301.075226 
	C752.428528,299.131927 755.216858,296.305969 757.908875,293.574768 
	C759.769653,291.686829 761.115906,289.291687 762.818726,286.948975 
	C760.121338,286.007080 758.781799,285.539307 756.615723,284.987671 
z"/>
<path fill="#F4F5F6" opacity="1.000000" stroke="none" 
	d="
M664.905579,264.020935 
	C654.273315,264.020935 644.126892,264.020935 633.957886,264.020935 
	C634.851868,253.714981 642.991028,247.129181 654.514587,247.116257 
	C665.258667,247.104202 672.355835,253.327362 673.330994,264.020935 
	C670.661194,264.020935 668.026306,264.020935 664.905579,264.020935 
M666.972107,258.618042 
	C665.264709,256.551056 663.948914,253.766586 661.764160,252.574097 
	C657.834900,250.429337 653.429993,246.948898 648.882874,249.317474 
	C644.442017,251.630661 640.837402,255.549149 636.865662,258.762939 
	C637.096069,259.527100 637.326477,260.291260 637.556885,261.055450 
	C644.797058,261.363770 652.039490,261.916107 659.276184,261.848785 
	C661.829346,261.825073 664.368469,260.286591 666.972107,258.618042 
z"/>
<path fill="#000000" opacity="1.000000" stroke="none" 
	d="
M946.009644,261.980408 
	C941.785217,261.093353 937.831482,263.536469 934.063660,260.196869 
	C930.767883,257.275604 929.870361,255.473877 933.847534,253.987976 
	C938.840515,252.122574 943.776611,247.763321 949.727539,251.057800 
	C953.186523,252.972763 957.016235,254.754959 959.571045,257.594055 
	C961.564087,259.808929 959.030945,261.733185 956.460327,261.915619 
	C953.155518,262.150177 949.821716,261.977600 946.009644,261.980408 
z"/>
<path fill="#000000" opacity="1.000000" stroke="none" 
	d="
M757.028931,285.029602 
	C758.781799,285.539307 760.121338,286.007080 762.818726,286.948975 
	C761.115906,289.291687 759.769653,291.686829 757.908875,293.574768 
	C755.216858,296.305969 752.428528,299.131927 749.177795,301.075226 
	C744.976074,303.587036 737.632690,301.466492 736.325623,297.470306 
	C734.767212,292.705231 737.242615,289.924896 741.931152,288.487244 
	C745.696289,287.332672 749.220581,285.406311 752.962402,284.152740 
	C753.973389,283.813995 755.386963,284.676514 757.028931,285.029602 
z"/>
<path fill="#000000" opacity="1.000000" stroke="none" 
	d="
M666.943054,259.028870 
	C664.368469,260.286591 661.829346,261.825073 659.276184,261.848785 
	C652.039490,261.916107 644.797058,261.363770 637.556885,261.055450 
	C637.326477,260.291260 637.096069,259.527100 636.865662,258.762939 
	C640.837402,255.549149 644.442017,251.630661 648.882874,249.317474 
	C653.429993,246.948898 657.834900,250.429337 661.764160,252.574097 
	C663.948914,253.766586 665.264709,256.551056 666.943054,259.028870 
z"/>
</svg>